<?xml version="1.0" encoding="UTF-8" standalone="no"?>
<!-- Created with Inkscape (http://www.inkscape.org/) -->
<svg
   xmlns:dc="http://purl.org/dc/elements/1.1/"
   xmlns:cc="http://web.resource.org/cc/"
   xmlns:rdf="http://www.w3.org/1999/02/22-rdf-syntax-ns#"
   xmlns:svg="http://www.w3.org/2000/svg"
   xmlns="http://www.w3.org/2000/svg"
   xmlns:xlink="http://www.w3.org/1999/xlink"
   xmlns:sodipodi="http://sodipodi.sourceforge.net/DTD/sodipodi-0.dtd"
   xmlns:inkscape="http://www.inkscape.org/namespaces/inkscape"
   version="1.0"
   width="600"
   height="660"
   id="svg2"
   sodipodi:version="0.32"
   inkscape:version="0.45.1"
   sodipodi:docname="Escudo de Castilla.svg"
   sodipodi:docbase="C:\Documents and Settings\HP_Administrator\My Documents\My Pictures"
   inkscape:output_extension="org.inkscape.output.svg.inkscape">
  <metadata
     id="metadata62">
    <rdf:RDF>
      <cc:Work
         rdf:about="">
        <dc:format>image/svg+xml</dc:format>
        <dc:type
           rdf:resource="http://purl.org/dc/dcmitype/StillImage" />
      </cc:Work>
    </rdf:RDF>
  </metadata>
  <sodipodi:namedview
     inkscape:window-height="712"
     inkscape:window-width="1024"
     inkscape:pageshadow="2"
     inkscape:pageopacity="0.0"
     guidetolerance="10.0"
     gridtolerance="10.0"
     objecttolerance="10.0"
     borderopacity="1.0"
     bordercolor="#666666"
     pagecolor="#ffffff"
     id="base"
     inkscape:zoom="0.40390796"
     inkscape:cx="503.73219"
     inkscape:cy="570.8593"
     inkscape:window-x="-4"
     inkscape:window-y="-4"
     inkscape:current-layer="svg2" />
  <desc
     id="desc4">Flag of Saint-Louis, Haut-Rhin, France</desc>
  <defs
     id="defs6">
    <linearGradient
       id="linearGradient2893">
      <stop
         style="stop-color:white;stop-opacity:0.3137255"
         offset="0"
         id="stop2895" />
      <stop
         style="stop-color:white;stop-opacity:0.25098041"
         offset="0.19"
         id="stop2897" />
      <stop
         style="stop-color:#6b6b6b;stop-opacity:0.1254902"
         offset="0.60000002"
         id="stop2901" />
      <stop
         style="stop-color:black;stop-opacity:0.1254902"
         offset="1"
         id="stop2899" />
    </linearGradient>
    <linearGradient
       id="linearGradient2885">
      <stop
         style="stop-color:white;stop-opacity:1"
         offset="0"
         id="stop2887" />
      <stop
         style="stop-color:white;stop-opacity:1"
         offset="0.22857143"
         id="stop2891" />
      <stop
         style="stop-color:black;stop-opacity:1"
         offset="1"
         id="stop2889" />
    </linearGradient>
    <linearGradient
       id="linearGradient2955">
      <stop
         style="stop-color:#fd0000;stop-opacity:1"
         offset="0"
         id="stop2867" />
      <stop
         style="stop-color:#e77275;stop-opacity:0.65882355"
         offset="0.5"
         id="stop2873" />
      <stop
         style="stop-color:black;stop-opacity:0.32291666"
         offset="1"
         id="stop2959" />
    </linearGradient>
    <radialGradient
       cx="225.52438"
       cy="218.90099"
       r="300"
       fx="225.52438"
       fy="218.90099"
       id="radialGradient2961"
       xlink:href="#linearGradient2955"
       gradientUnits="userSpaceOnUse"
       gradientTransform="matrix(-4.167939e-4,2.182867,-1.884232,-3.599562e-4,615.5972,-289.1214)" />
    <polygon
       points="0,-1 0.58778525,0.80901699 -0.95105652,-0.30901699 0.95105652,-0.30901699 -0.58778525,0.80901699 0,-1 "
       transform="scale(53,53)"
       id="star" />
    <clipPath
       id="clip">
      <path
         d="M 0,-200 L 0,600 L 300,600 L 300,-200 L 0,-200 z "
         id="path10" />
    </clipPath>
    <radialGradient
       cx="225.52438"
       cy="218.90099"
       r="300"
       fx="225.52438"
       fy="218.90099"
       id="radialGradient1911"
       xlink:href="#linearGradient2955"
       gradientUnits="userSpaceOnUse"
       gradientTransform="matrix(-4.167939e-4,2.182867,-1.884232,-3.599562e-4,615.5972,-289.1214)" />
    <radialGradient
       cx="225.52438"
       cy="218.90099"
       r="300"
       fx="225.52438"
       fy="218.90099"
       id="radialGradient2865"
       xlink:href="#linearGradient2955"
       gradientUnits="userSpaceOnUse"
       gradientTransform="matrix(0,1.748721,-1.593162,-1.049767e-7,551.7876,-191.2898)" />
    <radialGradient
       cx="225.52438"
       cy="218.90099"
       r="300"
       fx="225.52438"
       fy="218.90099"
       id="radialGradient2871"
       xlink:href="#linearGradient2955"
       gradientUnits="userSpaceOnUse"
       gradientTransform="matrix(0,1.386237,-1.323286,-5.741131e-8,-158.0823,-109.5408)" />
    <radialGradient
       cx="221.44487"
       cy="226.33101"
       r="300"
       fx="221.44487"
       fy="226.33101"
       id="radialGradient3163"
       xlink:href="#linearGradient2893"
       gradientUnits="userSpaceOnUse"
       gradientTransform="matrix(1.353218,0,0,1.348928,-77.62935,-85.74693)" />
    <radialGradient
       inkscape:collect="always"
       xlink:href="#linearGradient2893"
       id="radialGradient3973"
       gradientUnits="userSpaceOnUse"
       gradientTransform="matrix(1.353218,0,0,1.348928,-79.38001,-85.746935)"
       cx="221.44487"
       cy="226.33101"
       fx="221.44487"
       fy="226.33101"
       r="300" />
  </defs>
  <g
     id="g4103">
    <g
       id="layer3"
       style="display:inline;fill:#e60000;fill-opacity:1">
      <path
         id="path2855"
         style="fill:#e60000;fill-opacity:1;fill-rule:evenodd;stroke:none;stroke-width:1px;stroke-linecap:butt;stroke-linejoin:miter;stroke-opacity:1"
         d="M 300,658.5 C 300,658.5 598.50001,546.17969 598.50001,260.72817 C 598.50001,-24.723354 598.50001,2.1764765 598.50001,2.1764765 L 1.5,2.1764765 L 1.5,260.72817 C 1.5,546.17969 300,658.5 300,658.5 z " />
    </g>
    <g
       id="layer1">
      <path
         id="path1411"
         style="opacity:1;fill:#e60000;fill-opacity:1;fill-rule:evenodd;stroke:black;stroke-width:3.00000048;stroke-linecap:butt;stroke-linejoin:miter;stroke-miterlimit:4;stroke-dasharray:none;stroke-opacity:1"
         d="M 299.99999,658.50028 C 299.99999,658.50028 1.5,546.17992 1.5,260.72828 C 1.5,-24.723336 1.5,2.1764957 1.5,2.1764957 L 598.49999,2.1764957 L 598.49999,260.72828 C 598.49999,546.17992 299.99999,658.50028 299.99999,658.50028 z " />
    </g>
    <path
       d="M 298.24935,658.5 C 298.24935,658.5 596.74935,546.17969 596.74935,260.72817 C 596.74935,-24.723335 596.74935,2.1764904 596.74935,2.1764904 L -0.25066026,2.1764904 L -0.25066026,260.72817 C -0.25066026,546.17969 298.24935,658.5 298.24935,658.5 z "
       style="fill:url(#radialGradient3973);fill-opacity:1;fill-rule:evenodd;stroke:none;stroke-width:1px;stroke-linecap:butt;stroke-linejoin:miter;stroke-opacity:1"
       id="path2875" />
    <g
       transform="matrix(1,0,0,1.0248873,0,-0.8621546)"
       id="g4057">
      <polygon
         style="font-size:12px;fill:#eebf00"
         points="-7,38 -5,11 -4,12 54,12 55,11 57,38 -7,38 "
         id="polygon849"
         transform="matrix(6.9890644,0,0,6.7261563,129.37126,162.97995)" />
      <polygon
         style="font-size:12px;fill:none;fill-opacity:0;stroke:#ffffff;stroke-width:0.15575847"
         points="-7,38 -5,11 -4,12 54,12 55,11 57,38 -7,38 "
         id="polygon850"
         transform="matrix(6.9890644,0,0,6.7261563,129.37126,162.97995)" />
      <polygon
         style="font-size:12px;fill:none;fill-opacity:0;stroke:#000000;stroke-width:0.15575847"
         points="-7,38 -5,11 -4,12 54,12 55,11 57,38 -7,38 "
         id="polygon851"
         transform="matrix(6.9890644,0,0,6.7261563,129.37126,162.97995)" />
      <polygon
         style="font-size:12px;fill:#eebf00"
         points="-4,-10 10,-10 10,13 -4,13 -4,-10 "
         id="polygon837"
         transform="matrix(6.9890644,0,0,6.7261563,129.37126,162.97995)" />
      <polygon
         style="font-size:12px;fill:none;fill-opacity:0;stroke:#ffffff;stroke-width:0.15575847"
         points="-4,-10 10,-10 10,13 -4,13 -4,-10 "
         id="polygon838"
         transform="matrix(6.9890644,0,0,6.7261563,129.37126,162.97995)" />
      <polygon
         style="font-size:12px;fill:none;fill-opacity:0;stroke:#000000;stroke-width:0.15575847"
         points="-4,-10 10,-10 10,13 -4,13 -4,-10 "
         id="polygon839"
         transform="matrix(6.9890644,0,0,6.7261563,129.37126,162.97995)" />
      <polygon
         style="font-size:12px;fill:#eebf00"
         points="18,-15 32,-15 32,12 18,12 18,-15 "
         id="polygon840"
         transform="matrix(6.9890644,0,0,6.7261563,129.37126,162.97995)" />
      <polygon
         style="font-size:12px;fill:none;fill-opacity:0;stroke:#ffffff;stroke-width:0.15575847"
         points="18,-15 32,-15 32,12 18,12 18,-15 "
         id="polygon841"
         transform="matrix(6.9890644,0,0,6.7261563,129.37126,162.97995)" />
      <polygon
         style="font-size:12px;fill:none;fill-opacity:0;stroke:#000000;stroke-width:0.15575847"
         points="18,-15 32,-15 32,12 18,12 18,-15 "
         id="polygon842"
         transform="matrix(6.9890644,0,0,6.7261563,129.37126,162.97995)" />
      <polygon
         style="font-size:12px;fill:#eebf00"
         points="40,-10 54,-10 54,12 40,12 40,-10 "
         id="polygon843"
         transform="matrix(6.9890644,0,0,6.7261563,129.37126,162.97995)" />
      <polygon
         style="font-size:12px;fill:none;fill-opacity:0;stroke:#ffffff;stroke-width:0.15575847"
         points="40,-10 54,-10 54,12 40,12 40,-10 "
         id="polygon844"
         transform="matrix(6.9890644,0,0,6.7261563,129.37126,162.97995)" />
      <polygon
         style="font-size:12px;fill:none;fill-opacity:0;stroke:#000000;stroke-width:0.15575847"
         points="40,-10 54,-10 54,12 40,12 40,-10 "
         id="polygon845"
         transform="matrix(6.9890644,0,0,6.7261563,129.37126,162.97995)" />
      <polygon
         style="font-size:12px;fill:#eebf00;fill-opacity:1"
         points="31,-19 35,-19 35,-15 15,-15 15,-19 19,-19 19,-17 23,-17 23,-19 27,-19 27,-17 31,-17 31,-19 "
         id="polygon846"
         transform="matrix(6.9890644,0,0,6.7261563,129.37126,162.97995)" />
      <polygon
         style="font-size:12px;fill:none;fill-opacity:0;stroke:#ffffff;stroke-width:0.15575847"
         points="31,-19 35,-19 35,-15 15,-15 15,-19 19,-19 19,-17 23,-17 23,-19 27,-19 27,-17 31,-17 31,-19 "
         id="polygon847"
         transform="matrix(6.9890644,0,0,6.7261563,129.37126,162.97995)" />
      <polygon
         style="font-size:12px;fill:none;fill-opacity:0;stroke:#000000;stroke-width:0.15575847"
         points="31,-19 35,-19 35,-15 15,-15 15,-19 19,-19 19,-17 23,-17 23,-19 27,-19 27,-17 31,-17 31,-19 "
         id="polygon848"
         transform="matrix(6.9890644,0,0,6.7261563,129.37126,162.97995)" />
      <polygon
         style="font-size:12px;fill:#004c7f"
         points="53,-14 57,-14 57,-10 37,-10 37,-14 41,-14 41,-12 45,-12 45,-14 49,-14 49,-12 53,-12 53,-14 "
         id="polygon852"
         transform="matrix(6.9890644,0,0,6.7261563,129.37126,162.97995)" />
      <polygon
         style="font-size:12px;fill:none;fill-opacity:0;stroke:#ffffff;stroke-width:0.15575847"
         points="53,-14 57,-14 57,-10 37,-10 37,-14 41,-14 41,-12 45,-12 45,-14 49,-14 49,-12 53,-12 53,-14 "
         id="polygon853"
         transform="matrix(6.9890644,0,0,6.7261563,129.37126,162.97995)" />
      <polygon
         style="font-size:12px;fill:#eebf00;fill-opacity:1;stroke:#000000;stroke-width:0.15575847"
         points="53,-14 57,-14 57,-10 37,-10 37,-14 41,-14 41,-12 45,-12 45,-14 49,-14 49,-12 53,-12 53,-14 "
         id="polygon854"
         transform="matrix(6.9890644,0,0,6.7261563,129.37126,162.97995)" />
      <polygon
         style="font-size:12px;fill:#004c7f"
         points="5,20 5,23 2,23 2,20 5,20 "
         id="polygon855"
         transform="matrix(6.9890644,0,0,6.7261563,129.37126,162.97995)" />
      <polygon
         style="font-size:12px;fill:none;fill-opacity:0;stroke:#ffffff;stroke-width:0.15575847"
         points="5,20 5,23 2,23 2,20 5,20 "
         id="polygon856"
         transform="matrix(6.9890644,0,0,6.7261563,129.37126,162.97995)" />
      <polygon
         style="font-size:12px;fill:none;fill-opacity:0;stroke:#000000;stroke-width:0.15575847"
         points="5,20 5,23 2,23 2,20 5,20 "
         id="polygon857"
         transform="matrix(6.9890644,0,0,6.7261563,129.37126,162.97995)" />
      <polygon
         style="font-size:12px;fill:#004c7f"
         points="24,-9 26,-9 26,-11 24,-11 24,-9 "
         id="polygon858"
         transform="matrix(6.9890644,0,0,6.7261563,129.37126,162.97995)" />
      <polygon
         style="font-size:12px;fill:none;fill-opacity:0;stroke:#ffffff;stroke-width:0.15575847"
         points="24,-9 26,-9 26,-11 24,-11 24,-9 "
         id="polygon859"
         transform="matrix(6.9890644,0,0,6.7261563,129.37126,162.97995)" />
      <polygon
         style="font-size:12px;fill:none;fill-opacity:0;stroke:#000000;stroke-width:0.15575847"
         points="24,-9 26,-9 26,-11 24,-11 24,-9 "
         id="polygon860"
         transform="matrix(6.9890644,0,0,6.7261563,129.37126,162.97995)" />
      <polygon
         style="font-size:12px;fill:#004c7f"
         points="2,-4 4,-4 4,-6 2,-6 2,-4 "
         id="polygon861"
         transform="matrix(6.9890644,0,0,6.7261563,129.37126,162.97995)" />
      <polygon
         style="font-size:12px;fill:none;fill-opacity:0;stroke:#ffffff;stroke-width:0.15575847"
         points="2,-4 4,-4 4,-6 2,-6 2,-4 "
         id="polygon862"
         transform="matrix(6.9890644,0,0,6.7261563,129.37126,162.97995)" />
      <polygon
         style="font-size:12px;fill:none;fill-opacity:0;stroke:#000000;stroke-width:0.15575847"
         points="2,-4 4,-4 4,-6 2,-6 2,-4 "
         id="polygon863"
         transform="matrix(6.9890644,0,0,6.7261563,129.37126,162.97995)" />
      <polygon
         style="font-size:12px;fill:#004c7f"
         points="46,-4 48,-4 48,-6 46,-6 46,-4 "
         id="polygon864"
         transform="matrix(6.9890644,0,0,6.7261563,129.37126,162.97995)" />
      <polygon
         style="font-size:12px;fill:none;fill-opacity:0;stroke:#ffffff;stroke-width:0.15575847"
         points="46,-4 48,-4 48,-6 46,-6 46,-4 "
         id="polygon865"
         transform="matrix(6.9890644,0,0,6.7261563,129.37126,162.97995)" />
      <polygon
         style="font-size:12px;fill:none;fill-opacity:0;stroke:#000000;stroke-width:0.15575847"
         points="46,-4 48,-4 48,-6 46,-6 46,-4 "
         id="polygon866"
         transform="matrix(6.9890644,0,0,6.7261563,129.37126,162.97995)" />
      <polygon
         style="font-size:12px;fill:#eebf00"
         points="52,12 45,12 45,9 40,9 40,12 33,12 33,9 28,9 28,12 21,12 21,9 16,9 16,12 9,12 9,9 4,9 4,12 -3,12 -3,9 -7,9 -7,15 57,15 57,9 52,9 52,12 "
         id="polygon867"
         transform="matrix(6.9890644,0,0,6.7261563,129.37126,162.97995)" />
      <polygon
         style="font-size:12px;fill:none;fill-opacity:0;stroke:#ffffff;stroke-width:0.15575847"
         points="52,12 45,12 45,9 40,9 40,12 33,12 33,9 28,9 28,12 21,12 21,9 16,9 16,12 9,12 9,9 4,9 4,12 -3,12 -3,9 -7,9 -7,15 57,15 57,9 52,9 52,12 "
         id="polygon868"
         transform="matrix(6.9890644,0,0,6.7261563,129.37126,162.97995)" />
      <polygon
         style="font-size:12px;fill:none;fill-opacity:0;stroke:#000000;stroke-width:0.15575847"
         points="52,12 45,12 45,9 40,9 40,12 33,12 33,9 28,9 28,12 21,12 21,9 16,9 16,12 9,12 9,9 4,9 4,12 -3,12 -3,9 -7,9 -7,15 57,15 57,9 52,9 52,12 "
         id="polygon869"
         transform="matrix(6.9890644,0,0,6.7261563,129.37126,162.97995)" />
      <polygon
         style="font-size:12px;fill:#eebf00;fill-opacity:1"
         points="9,-14 13,-14 13,-10 -7,-10 -7,-14 -3,-14 -3,-12 1,-12 1,-14 5,-14 5,-12 9,-12 9,-14 "
         id="polygon870"
         transform="matrix(6.9890644,0,0,6.7261563,129.37126,162.97995)" />
      <polygon
         style="font-size:12px;fill:none;fill-opacity:0;stroke:#ffffff;stroke-width:0.15575847"
         points="9,-14 13,-14 13,-10 -7,-10 -7,-14 -3,-14 -3,-12 1,-12 1,-14 5,-14 5,-12 9,-12 9,-14 "
         id="polygon871"
         transform="matrix(6.9890644,0,0,6.7261563,129.37126,162.97995)" />
      <polygon
         style="font-size:12px;fill:none;fill-opacity:0;stroke:#000000;stroke-width:0.15575847"
         points="9,-14 13,-14 13,-10 -7,-10 -7,-14 -3,-14 -3,-12 1,-12 1,-14 5,-14 5,-12 9,-12 9,-14 "
         id="polygon872"
         transform="matrix(6.9890644,0,0,6.7261563,129.37126,162.97995)" />
      <polygon
         style="font-size:12px;fill:#004c7f"
         points="49,20 49,23 46,23 46,20 49,20 "
         id="polygon873"
         transform="matrix(6.9890644,0,0,6.7261563,129.37126,162.97995)" />
      <polygon
         style="font-size:12px;fill:none;fill-opacity:0;stroke:#ffffff;stroke-width:0.15575847"
         points="49,20 49,23 46,23 46,20 49,20 "
         id="polygon874"
         transform="matrix(6.9890644,0,0,6.7261563,129.37126,162.97995)" />
      <polygon
         style="font-size:12px;fill:none;fill-opacity:0;stroke:#000000;stroke-width:0.15575847"
         points="49,20 49,23 46,23 46,20 49,20 "
         id="polygon875"
         transform="matrix(6.9890644,0,0,6.7261563,129.37126,162.97995)" />
      <path
         style="font-size:12px;fill:#004c7f"
         d="M 304.09761,411.84771 C 311.08705,411.84771 339.04351,398.39542 332.05407,398.39542 C 325.06528,398.39542 325.3536,384.05591 325.20944,371.04689 C 325.06528,358.0385 325.06528,398.39542 325.06528,337.86 C 325.06528,277.32458 283.13058,277.32458 283.13058,337.86 C 283.13058,398.39542 283.13058,358.0385 283.13058,371.49078 C 283.13058,384.94313 283.13058,398.39542 276.1416,398.39542 C 269.15254,398.39542 297.10881,411.84771 304.09761,411.84771 z "
         id="path876" />
      <path
         style="font-size:12px;fill:none;fill-opacity:0;stroke:#000000;stroke-width:1.06793451"
         d="M 304.09761,411.84771 C 311.08705,411.84771 339.04351,398.39542 332.05407,398.39542 C 325.06528,398.39542 325.3536,384.05591 325.20944,371.04689 C 325.06528,358.0385 325.06528,398.39542 325.06528,337.86 C 325.06528,277.32458 283.13058,277.32458 283.13058,337.86 C 283.13058,398.39542 283.13058,358.0385 283.13058,371.49078 C 283.13058,384.94313 283.13058,398.39542 276.1416,398.39542 C 269.15254,398.39542 297.10881,411.84771 304.09761,411.84771"
         id="path877" />
      <polygon
         style="font-size:12px;fill:#eebf00"
         points="59,35 59,40 -9,40 -9,35 59,35 "
         id="polygon878"
         transform="matrix(6.9890644,0,0,6.7261563,129.37126,162.97995)" />
      <polygon
         style="font-size:12px;fill:none;fill-opacity:0;stroke:#ffffff;stroke-width:0.15575847"
         points="59,35 59,40 -9,40 -9,35 59,35 "
         id="polygon879"
         transform="matrix(6.9890644,0,0,6.7261563,129.37126,162.97995)" />
      <polygon
         style="font-size:12px;fill:none;fill-opacity:0;stroke:#000000;stroke-width:0.15575847"
         points="59,35 59,40 -9,40 -9,35 59,35 "
         id="polygon880"
         transform="matrix(6.9890644,0,0,6.7261563,129.37126,162.97995)" />
    </g>
  </g>
</svg>
