<?xml version="1.0" encoding="UTF-8" standalone="no"?>
<!-- Created with Inkscape (http://www.inkscape.org/) -->

<svg
   xmlns:i="http://ns.adobe.com/AdobeIllustrator/10.0/"
   xmlns:dc="http://purl.org/dc/elements/1.1/"
   xmlns:cc="http://creativecommons.org/ns#"
   xmlns:rdf="http://www.w3.org/1999/02/22-rdf-syntax-ns#"
   xmlns:svg="http://www.w3.org/2000/svg"
   xmlns="http://www.w3.org/2000/svg"
   xmlns:sodipodi="http://sodipodi.sourceforge.net/DTD/sodipodi-0.dtd"
   xmlns:inkscape="http://www.inkscape.org/namespaces/inkscape"
   width="750"
   height="500"
   id="svg2416"
   sodipodi:version="0.32"
   inkscape:version="0.47 r22583"
   version="1.0"
   sodipodi:docname="Bandera de Reus.svg"
   inkscape:output_extension="org.inkscape.output.svg.inkscape">
  <title
     id="title3821">Bandera de Reus</title>
  <defs
     id="defs2418">
    <inkscape:perspective
       sodipodi:type="inkscape:persp3d"
       inkscape:vp_x="0 : 526.18109 : 1"
       inkscape:vp_y="0 : 1000 : 0"
       inkscape:vp_z="744.09448 : 526.18109 : 1"
       inkscape:persp3d-origin="372.04724 : 350.78739 : 1"
       id="perspective2424" />
    <inkscape:perspective
       id="perspective3848"
       inkscape:persp3d-origin="0.5 : 0.33333333 : 1"
       inkscape:vp_z="1 : 0.5 : 1"
       inkscape:vp_y="0 : 1000 : 0"
       inkscape:vp_x="0 : 0.5 : 1"
       sodipodi:type="inkscape:persp3d" />
  </defs>
  <sodipodi:namedview
     id="base"
     pagecolor="#ffffff"
     bordercolor="#666666"
     borderopacity="1.0"
     gridtolerance="10000"
     guidetolerance="10"
     objecttolerance="10"
     inkscape:pageopacity="0.0"
     inkscape:pageshadow="2"
     inkscape:zoom="0.98994949"
     inkscape:cx="71.507434"
     inkscape:cy="257.95506"
     inkscape:document-units="px"
     inkscape:current-layer="layer1"
     showgrid="false"
     inkscape:window-width="1024"
     inkscape:window-height="708"
     inkscape:window-x="-4"
     inkscape:window-y="-4"
     inkscape:window-maximized="1"
     inkscape:showpageshadow="false"
     showborder="false" />
  <metadata
     id="metadata2421">
    <rdf:RDF>
      <cc:Work
         rdf:about="">
        <dc:format>image/svg+xml</dc:format>
        <dc:type
           rdf:resource="http://purl.org/dc/dcmitype/StillImage" />
        <dc:title>Bandera de Reus</dc:title>
        <cc:license
           rdf:resource="http://creativecommons.org/licenses/by-sa/3.0/" />
        <dc:date>24-01-2009</dc:date>
        <dc:creator>
          <cc:Agent>
            <dc:title>Albert Mestre</dc:title>
          </cc:Agent>
        </dc:creator>
      </cc:Work>
      <cc:License
         rdf:about="http://creativecommons.org/licenses/by-sa/3.0/">
        <cc:permits
           rdf:resource="http://creativecommons.org/ns#Reproduction" />
        <cc:permits
           rdf:resource="http://creativecommons.org/ns#Distribution" />
        <cc:requires
           rdf:resource="http://creativecommons.org/ns#Notice" />
        <cc:requires
           rdf:resource="http://creativecommons.org/ns#Attribution" />
        <cc:permits
           rdf:resource="http://creativecommons.org/ns#DerivativeWorks" />
        <cc:requires
           rdf:resource="http://creativecommons.org/ns#ShareAlike" />
      </cc:License>
    </rdf:RDF>
  </metadata>
  <g
     inkscape:label="Layer 1"
     inkscape:groupmode="layer"
     id="layer1">
    <g
       id="g3793">
      <rect
         y="-9.9999997e-06"
         x="0"
         height="500"
         width="750"
         id="rect2405"
         style="fill:#ffffff;fill-opacity:1;fill-rule:evenodd;stroke:none;stroke-width:1;marker:none;visibility:visible;display:inline;overflow:visible" />
      <g
         style="stroke:none"
         transform="matrix(1.0239145,0,0,1.0787719,41.201313,-330.86958)"
         id="g2413">
        <g
           style="stroke:none"
           id="g2415">
          <path
             id="path2417"
             d="m 247.98,594.144 c 6.872,3.36 13.525,7.41 20.002,12.115 7.024,5.104 13.369,10.795 19.016,16.958 l 1.492,1.804 c 1.503,2.133 3.377,4.06 5.606,5.679 10.246,7.444 24.349,5.755 32.574,-3.537 1.17,1.322 2.559,2.526 4.046,3.607 10.047,7.3 23.771,5.895 32.151,-2.799 l 0.879,-0.938 c 12.181,-14.559 27.075,-25.77 43.419,-33.401 l 1.351,-0.565 c 4.859,-1.501 9.292,-4.529 12.512,-8.961 5.901,-8.121 6.097,-18.626 1.284,-26.743 3.853,-1.678 7.322,-4.373 9.971,-8.019 5.651,-7.779 6.045,-17.772 1.837,-25.735 -10.866,-17.014 -17.345,-36.404 -19.217,-56.2 l -0.043,-0.498 c -0.551,-6.748 -3.932,-13.225 -9.839,-17.517 -5.887,-4.276 -13.048,-5.486 -19.615,-3.948 -0.574,-6.884 -3.992,-13.47 -10.02,-17.849 -5.541,-4.027 -12.189,-5.396 -18.449,-4.36 l -1.294,0.149 c -19.39,4.848 -39.395,4.796 -58.996,0.076 l -1.385,-0.348 c -8.95,-1.654 -18.468,1.793 -24.175,9.647 -2.551,3.512 -4.017,7.485 -4.48,11.513 -9.113,-1.911 -18.87,1.539 -24.697,9.56 -2.416,3.324 -3.859,7.061 -4.4,10.866 l -0.303,1.612 c -1.664,18.472 -7.398,36.854 -17.427,53.587 l -0.987,1.892 c -0.767,1.331 -1.419,2.755 -1.938,4.262 -4.138,12.015 1.584,25.03 12.949,30.145 -0.93,1.512 -1.709,3.148 -2.311,4.896 -4.424,12.845 2.402,26.843 15.247,31.266 0.638,0.219 1.279,0.412 1.923,0.578 l 3.317,1.206 z"
             stroke-miterlimit="3.8637"
             clip-rule="evenodd"
             i:knockout="Off"
             style="fill-rule:evenodd;stroke:none" />
          <path
             id="path2419"
             d="m 424.862,571.741 c 7.875,-1.385 15.642,-3.392 23.214,-6.009 l 0.007,-0.133 c -4.759,-6.276 -10.032,-12.22 -15.845,-17.787 l -3.625,4.259 c 3.459,3.304 6.708,6.737 9.78,10.311 l 0.061,0.051 c -4.627,1.243 -9.313,2.257 -14.039,3.039 l 0.447,6.269 z"
             stroke-miterlimit="3.8637"
             i:knockout="Off"
             style="stroke:none" />
          <path
             id="path2421"
             d="m 314.321,633.688 -0.005,-0.004"
             stroke-miterlimit="3.8637"
             i:knockout="Off"
             style="fill:none;stroke:none" />
          <path
             id="path2423"
             d="m 340.332,633.509 c -3.715,6.952 -8.486,14.323 -13.381,20.818 -5.018,-6.4 -9.482,-13.162 -13.352,-20.189 l 5.35,-2.573 c 2.414,4.378 5.054,8.262 7.927,12.801 2.435,-4.073 5.645,-8.708 7.863,-12.806 l 5.593,1.949 z"
             stroke-miterlimit="3.8637"
             i:knockout="Off"
             style="stroke:none" />
          <path
             id="path2425"
             d="m 258.351,444.359 c -0.714,-4.516 -1.223,-9.07 -1.509,-13.636 l -0.002,-0.006 c 4.34,1.712 8.617,3.643 12.83,5.804 l 3.008,-4.644 c -7.034,-3.687 -14.259,-6.758 -21.623,-9.236 l -0.09,-0.059 c -0.016,7.787 0.581,15.565 1.76,23.246 l 5.626,-1.469 z"
             stroke-miterlimit="3.8637"
             i:knockout="Off"
             style="stroke:none" />
          <path
             id="path2427"
             d="m 227.289,570.566 c -7.782,-1.25 -15.561,-3.146 -23.296,-5.66 l -0.071,-0.007 c 4.77,-6.588 10.039,-12.743 15.727,-18.399 l 3.949,4.433 c -3.544,3.527 -6.916,7.251 -10.1,11.158 l -0.021,-0.01 c 4.587,1.219 9.18,2.223 13.776,2.986 l 0.036,5.499 z"
             stroke-miterlimit="3.8637"
             i:knockout="Off"
             style="stroke:none" />
          <path
             d=""
             id="path2429"
             stroke-miterlimit="3.8637"
             i:knockout="Off"
             style="fill:none;stroke:none" />
          <path
             id="path2431"
             d="m 249.468,588.183 c 7.598,3.586 14.887,7.973 22.065,13.188 7.693,5.59 14.609,11.854 20.725,18.65 l 1.297,1.692 c 1.109,1.536 2.477,2.924 4.093,4.099 8.194,5.953 19.664,4.137 25.617,-4.058 2.513,-3.459 3.655,-7.491 3.509,-11.451 l 0.016,0.336 c -0.039,5.748 2.601,11.431 7.605,15.067 7.496,5.446 17.723,4.433 24.017,-1.996 l 1.105,-1.287 c 13.706,-15.889 30.258,-27.847 48.644,-35.566 l 0.44,-0.138 c 2.948,-1.266 5.604,-3.318 7.628,-6.103 5.988,-8.243 4.161,-19.779 -4.082,-25.769 -1.127,-0.819 -2.311,-1.487 -3.537,-2.017 l 0.328,0.166 c 6.813,1.369 14.105,-1.217 18.458,-7.206 4.527,-6.232 4.566,-14.354 0.719,-20.508 l -0.183,-0.256 C 417.287,507.346 410.749,487.631 409.3,467.351 l -0.054,-0.52 c -0.536,-5.039 -3.123,-9.84 -7.545,-13.053 -7.761,-5.639 -18.418,-4.386 -24.69,2.596 l -0.097,0.137 c 4.6,-8.02 2.509,-18.385 -5.142,-23.943 -4.566,-3.318 -10.14,-4.216 -15.216,-2.946 -18.284,4.066 -37.666,4.222 -56.363,0.358 l -5.289,-0.875 c -6.926,-1.556 -14.428,1.009 -18.865,7.117 -4.2,5.781 -4.527,13.196 -1.481,19.15 -0.681,-0.685 -1.487,-1.438 -2.294,-2.024 -8.146,-5.919 -19.548,-4.113 -25.467,4.033 -2.104,2.896 -3.225,6.209 -3.437,9.536 l -0.017,0.583 c -1.85,20.066 -8.283,39.92 -19.527,57.93 l -0.871,1.582 c -0.135,0.329 -0.261,0.664 -0.378,1.004 -3.298,9.577 1.792,20.015 11.368,23.312 3.932,1.354 8.017,1.302 11.688,0.101 -5.592,1.603 -10.176,5.781 -12.213,11.699 -3.317,9.634 1.802,20.132 11.436,23.449 0.424,0.146 0.85,0.275 1.277,0.391 l 3.345,1.215 z"
             stroke-miterlimit="3.8637"
             clip-rule="evenodd"
             i:knockout="Off"
             style="fill:#ff0016;fill-rule:evenodd;stroke:none;fill-opacity:1" />
          <path
             id="path2433"
             d="m 353.799,462.203 c -2.227,-3.301 -5.544,-5.925 -9.604,-7.244 -6.621,-2.151 -13.57,-0.327 -18.29,4.148 -1.907,-1.793 -4.224,-3.151 -6.878,-4.015 -8.255,-2.683 -17.016,0.821 -21.319,7.942 l -1.024,1.389 c -6.742,7.381 -14.973,12.8 -23.889,16.136 l -1.481,0.748 c -2.812,1.268 -5.341,3.262 -7.283,5.936 -4.103,5.647 -4.475,12.804 -1.652,18.687 -2.296,1.26 -4.356,3.033 -5.997,5.292 -5.277,7.263 -4.441,17.102 1.523,23.386 l 0.854,1.596 c 4.4,8.279 6.826,17.432 7.168,26.713 0.158,3.46 1.342,7.096 3.531,10.107 4.101,5.645 10.831,8.273 17.297,7.414 0.494,2.552 1.516,5.03 3.145,7.271 4.729,6.508 12.938,8.991 20.219,6.751 l 0.904,-0.073 c 9.872,-2.391 20.279,-2.349 30.25,0.271 l 1.61,0.283 c 3.173,0.758 6.587,0.68 9.917,-0.402 6.628,-2.154 11.205,-7.714 12.391,-14.114 2.565,0.31 5.273,0.062 7.893,-0.789 7.16,-2.327 11.909,-8.643 12.586,-15.687 l 0.338,-2.067 c 0.592,-9.172 3.203,-18.307 7.968,-26.688 l 1.205,-1.938 c 2.533,-3.146 4.05,-7.146 4.05,-11.499 0,-6.994 -3.9,-13.063 -9.654,-16.156 1.101,-2.354 1.75,-4.97 1.75,-7.739 0,-8.222 -5.413,-15.179 -12.869,-17.502 l -0.326,-0.186 c -4.555,-1.859 -8.967,-4.295 -13.12,-7.313 -3.271,-2.377 -6.242,-5.013 -8.905,-7.858 l -2.308,-2.8 z"
             stroke-miterlimit="3.8637"
             clip-rule="evenodd"
             i:knockout="Off"
             style="fill-rule:evenodd;stroke:none" />
          <path
             id="path2435"
             d="m 348.539,464.686 c -1.513,-1.94 -3.612,-3.477 -6.109,-4.288 -6.633,-2.155 -13.755,1.475 -15.91,8.106 -0.256,0.791 -0.432,1.682 -0.527,2.479 -0.584,-4.754 -3.843,-8.976 -8.698,-10.554 -6.028,-1.959 -12.453,0.83 -15.247,6.301 l -1.501,2.1 c -6.902,7.415 -15.191,12.979 -24.167,16.589 l -1.006,0.475 c -2.609,0.751 -4.997,2.345 -6.717,4.712 -4.099,5.642 -2.848,13.537 2.793,17.637 0.705,0.512 1.445,0.94 2.209,1.288 -4.742,-0.979 -9.708,0.818 -12.739,4.99 -3.825,5.266 -3.025,12.479 1.632,16.796 l 1.436,2.164 c 4.156,7.922 6.774,16.669 7.633,25.554 l 0.073,2.456 c -0.17,2.818 0.601,5.711 2.39,8.174 4.1,5.642 11.995,6.892 17.637,2.793 0.75,-0.545 1.423,-1.155 2.018,-1.818 -2.476,4.227 -2.363,9.558 0.7,13.774 3.029,4.169 8.116,5.957 12.854,4.984 l 0.809,-0.074 c 11.823,-3.308 24.472,-3.38 36.501,0.022 l 1.85,0.315 c 1.717,0.114 2.935,-10e-4 4.581,-0.56 6.604,-2.24 10.262,-9.278 8.105,-15.91 -0.289,-0.89 -0.661,-1.72 -1.115,-2.494 l 0.122,0.218 c 3.269,3.475 8.366,4.958 13.204,3.386 5.516,-1.792 8.975,-6.991 8.79,-12.51 l 0.089,-0.862 c 0.693,-10.08 3.782,-20.129 9.137,-29.301 l 0.704,-1.221 c 2.172,-2.269 3.443,-5.263 3.443,-8.65 0,-6.975 -5.653,-12.627 -12.626,-12.626 -0.834,0 -1.646,0.081 -2.434,0.235 4.286,-2.046 7.263,-6.44 7.263,-11.506 0,-5.315 -3.261,-9.87 -7.892,-11.771 l -0.427,-0.219 c -5.5,-2.09 -10.829,-4.944 -15.815,-8.567 -4.241,-3.082 -8.021,-6.564 -11.324,-10.357 l -1.719,-2.26 z"
             stroke-miterlimit="3.8637"
             clip-rule="evenodd"
             i:knockout="Off"
             style="fill:#ff0016;fill-rule:evenodd;stroke:none;fill-opacity:1" />
          <path
             id="path2437"
             d="m 342.822,540.659 c 5.786,7.647 9.703,16.371 12.144,25.404 -0.788,-0.529 -1.856,-0.869 -2.632,-1.432 -7.417,-5.39 -13.563,-11.878 -18.375,-19.08 l 8.863,-4.892 z"
             stroke-miterlimit="3.8637"
             clip-rule="evenodd"
             i:knockout="Off"
             style="fill-rule:evenodd;stroke:none" />
          <path
             id="path2439"
             d="m 318.393,545.763 c -0.464,0.684 -0.945,1.358 -1.435,2.031 -5.335,7.343 -12.117,13.38 -19.248,18.143 2.333,-8.319 5.782,-16.77 11.159,-24.169 0.593,-0.816 1.199,-1.617 1.818,-2.402 l 7.706,6.397 z"
             stroke-miterlimit="3.8637"
             clip-rule="evenodd"
             i:knockout="Off"
             style="fill-rule:evenodd;stroke:none" />
          <path
             id="path2441"
             d="m 305.538,524.685 c -8.23,-2.333 -16.202,-6.135 -23.526,-11.456 -0.817,-0.594 -1.334,-1.18 -2.119,-1.8 9.361,-0.433 18.834,0.898 27.896,4.087 l -2.251,9.169 z"
             stroke-miterlimit="3.8637"
             clip-rule="evenodd"
             i:knockout="Off"
             style="fill-rule:evenodd;stroke:none" />
          <path
             id="path2443"
             d="m 321.328,504.88 c -0.121,-9.376 1.496,-18.825 4.943,-27.824 3.363,8.791 5.484,18.304 5.385,27.7 l -10.328,0.124 z"
             stroke-miterlimit="3.8637"
             clip-rule="evenodd"
             i:knockout="Off"
             style="fill-rule:evenodd;stroke:none" />
          <path
             id="path2445"
             d="m 345.332,515.403 c 8.928,-3.039 18.366,-4.381 27.797,-3.935 -7.559,6.164 -15.958,10.759 -25.025,13.541 l -2.772,-9.606 z"
             stroke-miterlimit="3.8637"
             clip-rule="evenodd"
             i:knockout="Off"
             style="fill-rule:evenodd;stroke:none" />
          <path
             id="path2447"
             d="m 306.656,511.967 c 7.949,-10.941 23.264,-13.366 34.205,-5.416 10.941,7.95 13.367,23.265 5.418,34.207 -7.95,10.941 -23.265,13.366 -34.206,5.416 -10.942,-7.95 -13.367,-23.265 -5.417,-34.207 z"
             stroke-miterlimit="3.8637"
             clip-rule="evenodd"
             i:knockout="Off"
             style="fill-rule:evenodd;stroke:none" />
          <path
             id="path2449"
             d="m 311.631,515.582 c 5.953,-8.194 17.422,-10.011 25.616,-4.057 8.194,5.954 10.011,17.423 4.057,25.617 -5.953,8.194 -17.422,10.011 -25.616,4.057 -8.194,-5.954 -10.011,-17.423 -4.057,-25.617 z"
             stroke-miterlimit="3.8637"
             clip-rule="evenodd"
             i:knockout="Off"
             style="fill:#ffff00;fill-rule:evenodd;stroke:none" />
          <path
             id="path2451"
             d="m 382.361,436.94 c 4.305,-2.195 8.699,-4.171 13.18,-5.914 l -0.016,0.011 c -0.283,4.992 -0.828,9.979 -1.635,14.941 l 5.248,1.313 c 1.363,-8.107 2.05,-16.28 2.067,-24.438 l 0.004,0.025 c -7.567,2.479 -14.943,5.573 -22.074,9.25 l 3.226,4.812 z"
             stroke-miterlimit="3.8637"
             clip-rule="evenodd"
             i:knockout="Off"
             style="fill-rule:evenodd;stroke:none" />
          <path
             id="path2453"
             d="m 381.525,436.956 14.6,-6.695 -1.209,15.529 -10.043,0.651 -3.348,-9.485 z"
             stroke-miterlimit="3.8637"
             clip-rule="evenodd"
             i:knockout="Off"
             style="fill:#00ff36;fill-rule:evenodd;stroke:none;fill-opacity:1" />
          <path
             id="path2455"
             d="m 256.08,429.517 15.529,5.858 -3.998,10.602 -10.322,-0.093 -1.209,-16.367 z"
             stroke-miterlimit="3.8637"
             clip-rule="evenodd"
             i:knockout="Off"
             style="fill:#00ff36;fill-rule:evenodd;stroke:none;fill-opacity:1" />
          <path
             id="path2457"
             d="m 223.254,550.126 -13.019,12.646 17.297,3.906 4.835,-10.787 -9.113,-5.765 z"
             stroke-miterlimit="3.8637"
             clip-rule="evenodd"
             i:knockout="Off"
             style="fill:#00ff41;fill-rule:evenodd;stroke:none;fill-opacity:1" />
          <path
             id="path2459"
             d="m 317.733,632.145 c 0,0 8.183,-7.067 8.555,-7.067 0.372,0 9.95,6.695 9.95,6.695 l -9.02,14.6 -9.485,-14.228 z"
             stroke-miterlimit="3.8637"
             clip-rule="evenodd"
             i:knockout="Off"
             style="fill:#00ff36;fill-rule:evenodd;stroke:none;fill-opacity:1" />
          <path
             id="path2461"
             d="m 429.508,551.521 11.438,11.251 -16.087,4.092 -4.186,-9.578 8.835,-5.765 z"
             stroke-miterlimit="3.8637"
             clip-rule="evenodd"
             i:knockout="Off"
             style="fill:#00ff36;fill-rule:evenodd;stroke:none;fill-opacity:1" />
        </g>
      </g>
    </g>
  </g>
</svg>
